<svg width="208" height="74" viewBox="0 0 208 74" fill="none" xmlns="http://www.w3.org/2000/svg">
<path d="M21.1807 14.2298C19.577 14.447 18.132 15.1235 16.9459 16.2178C15.9435 17.1533 15.1918 18.4062 14.7992 19.8178L14.582 20.6197V36.7823V52.9449L14.7741 53.6883C15.4758 56.4697 17.5306 58.5245 20.3204 59.2679C21.0137 59.4517 21.0387 59.4517 30.0346 59.4851C35.9568 59.5018 39.3146 59.4851 39.8074 59.4266C40.8348 59.3013 41.4362 59.1426 42.2631 58.7417C44.4682 57.6976 45.9717 55.7931 46.4562 53.446C46.5898 52.7862 46.6149 52.285 46.6149 49.3281V45.9703H46.9323C47.4251 45.9703 48.5778 45.6612 49.246 45.3522C51.401 44.3582 52.8962 42.554 53.4809 40.2403L53.673 39.4969V30.0583V20.6197L53.4558 19.8178C52.6957 17.0948 50.691 15.1152 47.9346 14.3801L47.2413 14.1964L34.4616 14.1797C27.4369 14.1713 21.4564 14.1964 21.1807 14.2298ZM47.3583 19.4503C47.9096 19.7593 48.4024 20.3524 48.5778 20.9287C48.7699 21.5802 48.7699 38.6199 48.5778 39.2714C48.4024 39.8477 47.9096 40.4408 47.3583 40.7498L46.9072 41.0004H34.1275H21.3478L20.8967 40.7498C20.4123 40.4825 19.9779 40.0064 19.744 39.4886C19.602 39.1879 19.5937 38.5697 19.5686 30.2755C19.5436 20.4275 19.5185 20.8869 20.0865 20.1436C20.3956 19.7426 20.7965 19.4503 21.2977 19.2749C21.5399 19.183 24.0457 19.1663 34.2528 19.183L46.9072 19.1997L47.3583 19.4503ZM20.3204 45.8199L21.0137 46.0037L31.3126 46.0288L41.6032 46.0622V49.2613C41.6032 52.8864 41.5949 52.9532 40.9768 53.6381C40.7429 53.9054 40.4338 54.1226 40.1081 54.2729L39.6153 54.4901L30.4773 54.4734L21.3478 54.4484L20.8884 54.1894C20.6211 54.0391 20.2953 53.7551 20.1116 53.5212C19.5686 52.8112 19.5519 52.6859 19.5519 48.9606C19.5519 47.1313 19.5686 45.6362 19.5853 45.6362C19.6104 45.6362 19.9362 45.7197 20.3204 45.8199Z" fill="#FB474C"/>
<path d="M121.076 14.5874C120.651 14.8143 120.169 15.3247 120.027 15.7217C119.857 16.147 119.743 21.1377 119.743 27.4044C119.743 39.3423 119.885 40.6751 121.359 43.3973C122.494 45.4673 124.649 47.4806 127.059 48.6432C128.931 49.5789 129.469 49.7207 131.823 49.8058C133.921 49.9192 134.857 49.8058 136.388 49.3521C142.74 47.3955 146.625 41.2706 145.547 34.8621C144.073 26.1567 134.772 21.3362 126.946 25.1926C125.982 25.6463 125.131 26.0433 125.017 26.0433C124.932 26.0433 124.847 23.6897 124.847 20.8258V15.6082L123.968 14.871C122.976 14.0486 122.239 13.9636 121.076 14.5874ZM135.708 29.6729C141.889 32.3951 142.088 40.7602 136.048 43.9928C135.169 44.4748 134.432 44.6166 132.645 44.6166C130.122 44.6166 128.845 44.1062 127.229 42.5182C124.195 39.5408 124.337 34.2666 127.541 31.1474C129.781 28.9356 132.815 28.3969 135.708 29.6729Z" fill="#FB474C"/>
<path d="M69.8644 24.2002C67.5676 24.8524 65.7528 25.9583 64.0514 27.7447C60.677 31.2609 60.4785 32.2817 60.4785 46.5449V57.859L61.3008 58.6813C62.1799 59.5604 63.2007 59.7305 64.2499 59.1634C65.4976 58.5112 65.5543 58.1709 65.5826 52.7549C65.5826 49.9193 65.6677 47.5941 65.8095 47.5941C65.9229 47.5941 66.405 47.8493 66.8587 48.1612C68.2481 49.0969 71.1404 49.8625 73.2388 49.8625C78.5414 49.8625 83.5037 46.4315 85.4603 41.4124C86.3677 39.0872 86.3677 34.5502 85.4603 32.225C84.1559 28.879 81.1502 25.8732 77.8608 24.6256C75.7058 23.8032 71.9911 23.6047 69.8644 24.2002ZM76.443 29.673C78.8817 30.7505 80.6965 33.2458 81.0651 36.0531C81.4621 38.8887 79.6473 42.2631 76.8967 43.766C75.5924 44.5032 75.0819 44.6167 73.2388 44.6167C71.424 44.6167 70.9136 44.5032 69.8077 43.851C66.5184 41.9228 64.9304 38.038 65.9796 34.5219C67.284 29.9565 72.0762 27.7447 76.443 29.673Z" fill="#FB474C"/>
<path d="M89.7703 24.0584C88.2958 24.6539 88.2391 25.136 88.3241 37.2724L88.4092 48.5015L89.2032 49.182C90.2524 50.0894 91.6702 50.0894 92.7193 49.182L93.5133 48.5015L93.5984 37.2724C93.6551 27.4895 93.6267 25.9299 93.2298 25.1927C92.5776 23.945 91.1881 23.4913 89.7703 24.0584Z" fill="#FB474C"/>
<path d="M97.3981 24.0584C96.4907 24.4271 95.8385 26.0717 96.2355 27.0642C96.3773 27.5179 97.9653 29.6446 99.7233 31.8564C101.51 34.0682 103.098 36.1382 103.296 36.4501C103.608 36.9321 103.296 37.4425 100.064 41.4691C98.0787 43.9077 96.349 46.2046 96.2355 46.5449C95.3848 48.7566 98.1354 50.7983 100.092 49.4372C100.404 49.2103 102.105 47.2254 103.863 45.042C105.621 42.8302 107.153 41.1288 107.266 41.2706C107.38 41.384 108.854 43.2272 110.555 45.3256C112.228 47.4239 113.816 49.2954 114.072 49.4939C114.298 49.6924 114.979 49.8625 115.574 49.8625C117.644 49.8625 118.75 47.6224 117.559 45.8927C117.304 45.4957 115.574 43.3123 113.731 41.0154L110.385 36.8471L114.213 32.0832C117.588 27.9149 118.041 27.206 118.041 26.2986C118.041 24.3987 115.688 23.1227 114.157 24.2002C113.845 24.4271 112.143 26.412 110.385 28.5954C108.656 30.7788 107.124 32.5653 107.039 32.5369C106.926 32.5369 105.763 31.1191 104.43 29.4177C100.829 24.739 99.8651 23.7749 98.8727 23.8032C98.419 23.8032 97.7668 23.9166 97.3981 24.0584Z" fill="#FB474C"/>
<path d="M156.407 24.2002C151.558 25.5613 148.099 29.4745 147.248 34.5502C146.227 40.6751 149.602 46.8568 155.188 49.0686C157.343 49.9193 160.944 50.0894 163.326 49.4372C169.168 47.8493 173.137 42.178 172.684 35.9964C172.343 30.8072 169.111 26.4404 164.319 24.6256C162.22 23.8032 158.449 23.6047 156.407 24.2002ZM161.937 29.3043C163.893 29.8998 165.595 31.2609 166.644 33.1324C167.41 34.4935 167.523 34.9472 167.523 36.8187C167.523 38.5768 167.381 39.2006 166.757 40.3916C162.901 47.7358 152.324 45.1554 152.296 36.8471C152.267 33.3593 154.196 30.4669 157.23 29.4177C159.073 28.7656 160.065 28.7656 161.937 29.3043Z" fill="#FB474C"/>
<path d="M172.173 24.5972C171.238 25.5613 171.096 26.6956 171.833 27.7447C172.088 28.1417 173.846 30.3535 175.689 32.6504C178.695 36.4217 179.007 36.9038 178.667 37.3291C175.519 41.0438 171.606 46.2897 171.464 46.9419C171.294 47.8493 171.691 48.9268 172.457 49.4939C172.996 49.9193 174.584 49.976 175.264 49.6073C175.519 49.4656 177.221 47.4806 179.007 45.2121C180.794 42.9436 182.325 41.1005 182.41 41.1005C182.495 41.1005 183.658 42.5467 185.047 44.3047C188.932 49.3238 189.499 49.8625 190.832 49.8625C192.476 49.8625 193.781 48.2179 193.327 46.715C193.214 46.4031 191.597 44.1913 189.726 41.8378C187.826 39.4558 186.181 37.3575 186.011 37.1873C185.841 36.9321 186.833 35.4576 189.527 32.0832C192.958 27.8298 193.327 27.2627 193.327 26.2419C193.327 24.3136 191.314 23.1794 189.584 24.1435C189.244 24.342 187.542 26.2702 185.813 28.4536C184.055 30.6371 182.523 32.4235 182.41 32.4235C182.268 32.4235 180.737 30.6371 179.007 28.4536C177.249 26.2702 175.548 24.342 175.236 24.1435C174.158 23.548 173.081 23.7182 172.173 24.5972Z" fill="#FB474C"/>
</svg>
